<?xml version="1.0" encoding="UTF-8"?>
<svg xmlns="http://www.w3.org/2000/svg" xmlns:xlink="http://www.w3.org/1999/xlink" width="250px" height="250px" viewBox="0 0 250 250" version="1.1">
<g id="surface1">
<path style=" stroke:none;fill-rule:nonzero;fill:rgb(0%,0%,0%);fill-opacity:1;" d="M 42.332031 95 C 41.167969 95.832031 40 97.75 39.75 99.082031 C 39 102.832031 35.832031 105.832031 30.832031 107.417969 C 25 109.332031 23.667969 111.5 25.582031 115.75 C 27.917969 121 27.917969 125.332031 25.5 130 C 23.75 133.25 23.5 134.5 24.167969 136.25 C 24.582031 137.417969 25.667969 138.582031 26.417969 138.832031 C 33.167969 140.832031 36.25 143.832031 38.167969 150.417969 C 38.582031 151.75 39.832031 153.417969 41 154.082031 C 42.917969 155.167969 43.582031 155.082031 47.332031 153.5 C 52.832031 151.167969 54.417969 151.167969 59.832031 153.917969 C 63.917969 156 64.5 156.082031 66.417969 155 C 67.582031 154.25 69 152.332031 69.582031 150.5 C 71.167969 146 74.667969 142.582031 78.5 141.917969 C 81.75 141.417969 85 138.5 85 136.167969 C 85 135.5 84.25 133.582031 83.332031 131.917969 C 81.082031 127.75 81.25 124.75 83.917969 119.5 C 86.75 113.917969 85.917969 111.417969 80.75 109.917969 C 76.667969 108.667969 72.667969 105 72 101.832031 C 70.582031 95 67.667969 93.167969 62.667969 95.832031 C 58.832031 97.917969 53.667969 98 50.332031 95.917969 C 46.082031 93.332031 44.582031 93.167969 42.332031 95 Z M 49.25 98.332031 C 53.667969 100.332031 58.167969 100.417969 62.25 98.75 C 63.832031 98.082031 65.75 97.5 66.332031 97.5 C 67 97.5 68.582031 99.832031 69.832031 102.75 C 72.167969 107.832031 74.417969 110.082031 79.417969 112.25 C 82.582031 113.667969 82.917969 115.25 80.917969 119.582031 C 78.832031 124 78.667969 128.667969 80.417969 132.832031 C 82 136.582031 81.667969 137.25 77.167969 139.082031 C 72.332031 141.167969 68.917969 144.332031 67.082031 148.25 C 65.417969 152.082031 63.917969 152.5 59.832031 150.332031 C 56.832031 148.75 51.25 148.667969 47.082031 150 C 43.167969 151.332031 42.082031 150.75 40.167969 146.5 C 38.082031 142 34.917969 138.667969 31.167969 137.082031 C 27.332031 135.5 27 134.082031 29.167969 129.332031 C 30.832031 125.75 30.917969 125 30.082031 120.832031 C 29.5 118.332031 28.917969 115.25 28.667969 114 C 28.25 112 28.582031 111.667969 32.167969 110 C 37.082031 107.917969 40.332031 104.917969 41.75 101.332031 C 42.917969 98.332031 44.082031 96.667969 45 96.667969 C 45.332031 96.667969 47.25 97.417969 49.25 98.332031 Z M 49.25 98.332031 "/>
<path style=" stroke:none;fill-rule:nonzero;fill:rgb(0%,0%,0%);fill-opacity:1;" d="M 41.667969 116.832031 C 39.167969 119.582031 39.25 129.25 41.832031 131.667969 C 42.832031 132.582031 44.25 133.332031 44.917969 133.332031 C 47.75 133.332031 56.417969 131.417969 58.667969 130.332031 C 60.917969 129.167969 61.332031 129.25 63.417969 130.75 C 66.5 133 68.167969 132.917969 69.25 130.5 C 70 128.917969 69.75 127.667969 67.917969 123.667969 C 64.167969 115.5 61.667969 113.917969 58.25 117.832031 C 56.5 119.832031 56.5 119.832031 54.917969 118.25 C 51.25 114.582031 44.417969 113.832031 41.667969 116.832031 Z M 52.5 119.332031 C 53.582031 120.5 54.167969 122.25 54.167969 124.25 C 54.167969 128.417969 51.25 130.832031 46.167969 130.832031 L 42.5 130.832031 L 42.5 117.5 L 46.667969 117.5 C 49.832031 117.5 51.167969 117.917969 52.5 119.332031 Z M 65.25 124.167969 C 67.5 129.167969 67.917969 130.832031 67 130.832031 C 66.332031 130.832031 65.417969 129.917969 65 128.75 C 64.332031 127.082031 63.667969 126.667969 61.25 126.667969 C 58.832031 126.667969 58.167969 127.082031 57.5 128.75 C 57.082031 129.917969 56.332031 130.832031 55.75 130.832031 C 55.25 130.832031 55 130.582031 55.167969 130.167969 C 55.332031 129.832031 56.582031 126.832031 57.917969 123.582031 C 59.332031 120.25 60.832031 117.5 61.332031 117.5 C 61.832031 117.5 63.582031 120.5 65.25 124.167969 Z M 65.25 124.167969 "/>
<path style=" stroke:none;fill-rule:nonzero;fill:rgb(0%,0%,0%);fill-opacity:1;" d="M 45 123.75 L 45 129.167969 L 47.417969 129.167969 C 50.082031 129.167969 52.5 126.667969 52.5 123.917969 C 52.5 121.917969 48.832031 118.332031 46.667969 118.332031 C 45.167969 118.332031 45 118.832031 45 123.75 Z M 45 123.75 "/>
<path style=" stroke:none;fill-rule:nonzero;fill:rgb(0%,0%,0%);fill-opacity:1;" d="M 60.167969 122.082031 C 58.75 125.167969 58.917969 125.832031 61.25 125.832031 C 63.667969 125.832031 63.667969 125.917969 62.25 122.582031 L 61.167969 119.917969 Z M 60.167969 122.082031 "/>
<path style=" stroke:none;fill-rule:nonzero;fill:rgb(0%,0%,0%);fill-opacity:1;" d="M 102.5 109.582031 L 102.5 117.75 L 106.75 117.332031 C 118.417969 116.167969 118.417969 103 106.75 101.832031 L 102.5 101.417969 Z M 111.582031 105.5 C 112.582031 106.75 113.332031 108.667969 113.332031 109.75 C 113.332031 112.582031 109.832031 115.832031 106.667969 115.832031 L 104.167969 115.832031 L 104.167969 103.332031 L 107 103.332031 C 109.082031 103.332031 110.332031 103.917969 111.582031 105.5 Z M 111.582031 105.5 "/>
<path style=" stroke:none;fill-rule:nonzero;fill:rgb(0%,0%,0%);fill-opacity:1;" d="M 120.582031 107.582031 C 119 111 117.5 114.582031 117.167969 115.582031 C 116.25 118.417969 117.832031 117.917969 118.917969 115 C 119.75 112.75 120.25 112.5 123.5 112.5 C 126.75 112.5 127.25 112.75 128.082031 115 C 128.917969 117.332031 130.832031 118.5 130.832031 116.75 C 130.832031 115.917969 124.5 102.582031 123.75 101.832031 C 123.582031 101.582031 122.082031 104.167969 120.582031 107.582031 Z M 125 108.332031 L 126.667969 111.667969 L 120.082031 111.667969 L 121.5 108.332031 C 122.25 106.5 123 105 123.082031 105 C 123.25 105 124.082031 106.5 125 108.332031 Z M 125 108.332031 "/>
<path style=" stroke:none;fill-rule:nonzero;fill:rgb(0%,0%,0%);fill-opacity:1;" d="M 131.667969 102.5 C 131.667969 102.917969 133 103.332031 134.582031 103.332031 L 137.5 103.332031 L 137.5 110.417969 C 137.5 116.167969 137.75 117.5 138.75 117.5 C 139.75 117.5 140 116.167969 140 110.417969 L 140 103.332031 L 142.917969 103.332031 C 144.5 103.332031 145.832031 102.917969 145.832031 102.5 C 145.832031 102 142.917969 101.667969 138.75 101.667969 C 134.582031 101.667969 131.667969 102 131.667969 102.5 Z M 131.667969 102.5 "/>
<path style=" stroke:none;fill-rule:nonzero;fill:rgb(0%,0%,0%);fill-opacity:1;" d="M 149.667969 109.167969 C 147.917969 113.332031 146.667969 117 147 117.25 C 147.25 117.582031 148 116.582031 148.5 115.167969 C 149.417969 112.75 149.832031 112.5 153.082031 112.5 C 156.167969 112.5 156.75 112.832031 157.917969 115 C 158.667969 116.332031 159.582031 117.5 160.082031 117.5 C 160.582031 117.5 160.832031 117.167969 160.667969 116.832031 C 158.75 111.917969 153.75 101.667969 153.417969 101.667969 C 153.082031 101.667969 151.417969 105.082031 149.667969 109.167969 Z M 155.832031 111 C 155.832031 111.417969 154.5 111.667969 152.917969 111.667969 C 151.332031 111.667969 150 111.5 150 111.25 C 150 111.082031 150.667969 109.582031 151.417969 107.917969 L 152.832031 104.917969 L 154.332031 107.667969 C 155.082031 109.167969 155.75 110.667969 155.832031 111 Z M 155.832031 111 "/>
<path style=" stroke:none;fill-rule:nonzero;fill:rgb(0%,0%,0%);fill-opacity:1;" d="M 205 131.75 C 201.25 133.25 200 135 200 138.917969 C 200 143.917969 202.667969 146.667969 207.5 146.667969 C 211 146.667969 214.167969 145.5 214.167969 144.167969 C 214.167969 143.832031 213 144 211.667969 144.75 C 204.917969 148.082031 198.417969 139.832031 203.75 134.582031 C 206 132.25 208.917969 131.917969 211.332031 133.75 C 213.25 135.167969 214.167969 135.332031 214.167969 134.082031 C 214.167969 133.332031 209.167969 130.75 207.75 130.917969 C 207.417969 130.917969 206.167969 131.332031 205 131.75 Z M 205 131.75 "/>
<path style=" stroke:none;fill-rule:nonzero;fill:rgb(0%,0%,0%);fill-opacity:1;" d="M 218.582031 131.667969 C 216.332031 132.582031 215.332031 135.5 216.75 137.167969 C 217.332031 137.832031 219.082031 139 220.75 139.667969 C 225.167969 141.5 226.167969 143.5 223.25 145 C 221.082031 146.167969 217.5 145.417969 217.5 143.75 C 217.5 143.082031 216.917969 142.5 216.167969 142.5 C 214.917969 142.5 214.917969 142.667969 216 144.332031 C 218.25 147.75 225.417969 147.332031 226.332031 143.75 C 227 141.082031 225.582031 139.332031 221.082031 137.417969 C 219.082031 136.582031 217.5 135.582031 217.5 135.167969 C 217.5 132.75 223 131.5 223.832031 133.75 C 224.5 135.332031 225.832031 135.417969 225.832031 133.917969 C 225.832031 133.25 224.917969 132.332031 223.75 131.832031 C 221.25 130.667969 221.082031 130.667969 218.582031 131.667969 Z M 218.582031 131.667969 "/>
<path style=" stroke:none;fill-rule:nonzero;fill:rgb(0%,0%,0%);fill-opacity:1;" d="M 106.332031 132.417969 C 104.667969 135 100.332031 146.667969 100.917969 146.667969 C 101.332031 146.667969 102.082031 145.75 102.5 144.582031 C 103.167969 142.75 103.832031 142.5 107.082031 142.5 C 110.332031 142.5 111 142.75 111.667969 144.582031 C 112.082031 145.75 113 146.667969 113.667969 146.667969 C 114.5 146.667969 113.917969 144.667969 111.417969 139.167969 C 108 131.917969 107.25 130.832031 106.332031 132.417969 Z M 108.582031 137.917969 L 110 140.832031 L 107 140.832031 C 104.417969 140.832031 104.082031 140.582031 104.582031 139.332031 C 104.917969 138.582031 105.417969 137.25 105.582031 136.417969 C 106.25 134.25 107 134.667969 108.582031 137.917969 Z M 108.582031 137.917969 "/>
<path style=" stroke:none;fill-rule:nonzero;fill:rgb(0%,0%,0%);fill-opacity:1;" d="M 117.5 139.167969 C 117.5 143.582031 117.832031 146.667969 118.332031 146.667969 C 118.832031 146.667969 119.167969 144.25 119.167969 141.082031 L 119.167969 135.5 L 130.832031 147 L 130.667969 139.167969 C 130.5 131.332031 130.5 131.332031 130.082031 136.917969 L 129.582031 142.582031 L 124.167969 137.082031 C 121.25 134.082031 118.5 131.667969 118.167969 131.667969 C 117.832031 131.667969 117.5 135 117.5 139.167969 Z M 117.5 139.167969 "/>
<path style=" stroke:none;fill-rule:nonzero;fill:rgb(0%,0%,0%);fill-opacity:1;" d="M 137.167969 138.667969 C 133.917969 146.332031 133.832031 146.667969 134.917969 146.667969 C 135.332031 146.667969 135.917969 145.75 136.167969 144.582031 C 136.667969 142.75 137.082031 142.5 140.75 142.5 C 144.417969 142.5 144.832031 142.75 145.332031 144.582031 C 145.667969 145.75 146.417969 146.667969 147.082031 146.667969 C 147.75 146.667969 148.332031 146.5 148.332031 146.332031 C 148.332031 145.167969 141.5 131.667969 140.917969 131.667969 C 140.5 131.667969 138.832031 134.832031 137.167969 138.667969 Z M 143.332031 140.167969 C 143.332031 140.582031 142.082031 140.832031 140.5 140.832031 L 137.582031 140.832031 L 139 137.582031 L 140.417969 134.25 L 141.832031 136.917969 C 142.582031 138.417969 143.25 139.832031 143.332031 140.167969 Z M 143.332031 140.167969 "/>
<path style=" stroke:none;fill-rule:nonzero;fill:rgb(0%,0%,0%);fill-opacity:1;" d="M 151.667969 139.167969 L 151.667969 146.667969 L 156.667969 146.667969 C 159.417969 146.667969 161.667969 146.332031 161.667969 145.832031 C 161.667969 145.332031 159.75 145 157.417969 145 L 153.167969 145 L 153.5 138.332031 C 153.667969 133.332031 153.5 131.667969 152.75 131.667969 C 151.917969 131.667969 151.667969 133.667969 151.667969 139.167969 Z M 151.667969 139.167969 "/>
<path style=" stroke:none;fill-rule:nonzero;fill:rgb(0%,0%,0%);fill-opacity:1;" d="M 165 136.082031 C 166.5 138.832031 167.5 141.75 167.5 143.582031 C 167.5 145.75 167.832031 146.667969 168.75 146.667969 C 169.667969 146.667969 170 145.75 170 143.667969 C 170 141.832031 171 138.917969 172.582031 136.167969 C 174 133.667969 174.75 131.667969 174.25 131.667969 C 173.75 131.667969 172.5 133.332031 171.5 135.417969 C 170.5 137.417969 169.417969 138.917969 169 138.667969 C 168.582031 138.417969 167.582031 136.75 166.667969 134.917969 C 165.75 133.167969 164.417969 131.667969 163.75 131.667969 C 162.75 131.667969 163.082031 132.75 165 136.082031 Z M 165 136.082031 "/>
<path style=" stroke:none;fill-rule:nonzero;fill:rgb(0%,0%,0%);fill-opacity:1;" d="M 176.25 132.582031 C 176.582031 133.082031 177.832031 133.167969 179.25 132.917969 L 181.667969 132.332031 L 181.667969 139.5 C 181.667969 145.417969 181.917969 146.667969 183 146.667969 C 184.082031 146.667969 184.25 145.5 184.082031 139.75 L 183.917969 132.917969 L 186.5 133.082031 C 187.917969 133.25 189.332031 132.917969 189.582031 132.5 C 189.917969 132 187.5 131.667969 182.917969 131.667969 C 178.082031 131.667969 175.917969 131.917969 176.25 132.582031 Z M 176.25 132.582031 "/>
<path style=" stroke:none;fill-rule:nonzero;fill:rgb(0%,0%,0%);fill-opacity:1;" d="M 193.332031 139.167969 C 193.332031 143.582031 193.667969 146.667969 194.167969 146.667969 C 194.667969 146.667969 195 143.582031 195 139.167969 C 195 134.75 194.667969 131.667969 194.167969 131.667969 C 193.667969 131.667969 193.332031 134.75 193.332031 139.167969 Z M 193.332031 139.167969 "/>
</g>
</svg>
